HIERARCHY
ROOT Hips
{
  OFFSET 0 0 0
  CHANNELS 6 Xposition Yposition Zposition Zrotation Xrotation Yrotation
  JOINT Spine
  {
    OFFSET 0 10.1816 0.131521
    CHANNELS 3 Zrotation Xrotation Yrotation
    JOINT Spine1
    {
      OFFSET 0 10.0835 -1.0008
      CHANNELS 3 Zrotation Xrotation Yrotation
      JOINT Spine2
      {
        OFFSET 0 9.10001 -1.37342
        CHANNELS 3 Zrotation Xrotation Yrotation
        JOINT Neck
        {
          OFFSET 0 16.6717 -2.51617
          CHANNELS 3 Zrotation Xrotation Yrotation
          JOINT Head
          {
            OFFSET 0 9.61788 1.68501
            CHANNELS 3 Zrotation Xrotation Yrotation
            End Site
            {
              OFFSET 0 0 0
            }
          }
        }
        JOINT LeftShoulder
        {
          OFFSET 4.57045 10.946 -2.62799
          CHANNELS 3 Zrotation Xrotation Yrotation
          JOINT LeftArm
          {
            OFFSET 10.5924 -0.524583 -2.23212
            CHANNELS 3 Zrotation Xrotation Yrotation
            JOINT LeftForeArm
            {
              OFFSET 27.8415 -8.94286e-05 3.74589e-05
              CHANNELS 3 Zrotation Xrotation Yrotation
              JOINT LeftHand
              {
                OFFSET 28.3288 -1.74407e-05 3.78045e-05
                CHANNELS 3 Zrotation Xrotation Yrotation
                End Site
                {
                  OFFSET 0 0 0
                }
              }
            }
          }
        }
        JOINT RightShoulder
        {
          OFFSET -4.56997 10.9462 -2.62802
          CHANNELS 3 Zrotation Xrotation Yrotation
          JOINT RightArm
          {
            OFFSET -10.5928 -0.524798 -2.2321
            CHANNELS 3 Zrotation Xrotation Yrotation
            JOINT RightForeArm
            {
              OFFSET -27.8415 -3.30792e-05 1.16763e-05
              CHANNELS 3 Zrotation Xrotation Yrotation
              JOINT RightHand
              {
                OFFSET -28.3288 0 5.5816e-05
                CHANNELS 3 Zrotation Xrotation Yrotation
                End Site
                {
                  OFFSET 0 0 0
                }
              }
            }
          }
        }
      }
    }
  }
  JOINT LeftUpLeg
  {
    OFFSET 8.20778 -6.75171 -1.59956
    CHANNELS 3 Zrotation Xrotation Yrotation
    JOINT LeftLeg
    {
      OFFSET 0 -44.3705 0.284643
      CHANNELS 3 Zrotation Xrotation Yrotation
      JOINT LeftFoot
      {
        OFFSET 0 -44.4279 -2.98219
        CHANNELS 3 Zrotation Xrotation Yrotation
        JOINT LeftToeBase
        {
          OFFSET 0 -8.72867 10.7106
          CHANNELS 3 Zrotation Xrotation Yrotation
          End Site
          {
            OFFSET 0 0 0
          }
        }
      }
    }
  }
  JOINT RightUpLeg
  {
    OFFSET -8.2078 -6.75166 -1.59956
    CHANNELS 3 Zrotation Xrotation Yrotation
    JOINT RightLeg
    {
      OFFSET 0 -44.3705 0.286156
      CHANNELS 3 Zrotation Xrotation Yrotation
      JOINT RightFoot
      {
        OFFSET 0 -44.4277 -2.98379
        CHANNELS 3 Zrotation Xrotation Yrotation
        JOINT RightToeBase
        {
          OFFSET 0 -8.72867 10.7106
          CHANNELS 3 Zrotation Xrotation Yrotation
          End Site
          {
            OFFSET 0 0 0
          }
        }
      }
    }
  }
}
MOTION
Frames:	17
Frame Time:	0.0333333
9.51122 91.2326 402.506 1.85381 11.5469 11.1236 1.36976 0.227754 3.44719 -4.04111 6.64009 -0.0118035 0.447622 3.53345 -0.3889 -0.653159 0.770134 -1.19891 -2.73186 -26.1124 -8.23965 -26.8794 5.06131 -15.8754 -40.7928 0.906217 -10.6406 -0.000220994 1.53754e-05 -76.2267 5.35707 3.44834 6.43222 14.8428 -4.44049 3.51906 38.7239 30.6254 -2.74535 -2.39656e-05 8.23962e-06 82.9016 -13.8947 -6.32158 2.78009 -11.7315 -24.6296 -4.67901 2.2281 47.7674 -4.41815 7.98074 -33.54 2.41983 4.23989e-07 -7.25029 1.48656e-07 -17.3267 -38.4508 -17.784 -176.987 73.7062 174.379 -0.0681859 -7.25005 -13.9288 6.9318e-07 -3.59019 -1.1037e-05 
10.0576 94.1964 415.325 -1.10786 11.3688 9.22729 3.36482 0.193027 2.87148 -1.42962 6.56764 -1.83571 2.93139 3.43247 -2.17148 -2.49715 2.88049 -0.28415 -3.64643 -28.1991 -3.88426 -26.7713 5.61387 -17.6706 -44.1852 -2.19404 -15.7135 -0.000174105 1.29786e-05 -75.7059 6.63311 3.15412 6.34529 11.5533 -4.0822 5.96538 42.7021 29.8406 -12.9588 6.11142e-05 -2.68817e-06 93.3666 -7.57141 -6.96739 -3.47868 -5.2585 -14.3264 1.32218 2.42504 39.4075 -4.99621 6.55876 -20.6018 -0.891304 -1.66566e-06 -22.3262 -1.75583e-06 -11.962 -47.973 -13.2402 177.669 86.9629 179.432 5.48394 -10.3591 -12.3447 -2.75053e-07 -11.1163 6.35439e-06 
10.3367 97.6325 428.237 -4.46276 11.497 6.99654 5.24483 0.63071 2.02157 1.24904 6.65547 -3.97004 5.45513 3.50871 -4.29927 -2.09497 3.47559 0.284939 -5.75761 -30.3439 2.41154 -23.6521 4.53101 -16.7766 -47.554 -3.18392 -17.1603 -0.000165189 -1.77926e-05 -80.9507 10.2579 0.611189 -0.584052 9.85533 -3.83397 8.64948 43.9335 28.4809 -20.1787 -1.40564e-05 -1.20553e-05 101.392 -4.30065 -6.15485 -1.64242 0.187526 -10.0646 2.23923 1.5794 36.1244 0.714086 -4.73426 5.84469 -5.50466 10.4801 -35.1383 4.85029 -2.72216 -51.4915 -5.89835 2.21866 72.9607 -2.9133 1.95151 -11.3795 -12.4848 3.17148e-07 -1.37489 6.30721e-06 
10.5473 99.7874 441.064 -6.80681 12.3553 4.29303 6.28021 1.08335 1.50437 2.99813 6.54905 -5.49981 7.08145 3.40333 -5.8538 -1.06234 3.40303 0.903801 -6.38197 -31.8876 8.22967 -20.9601 3.53489 -15.5052 -48.2693 -4.55026 -16.3599 -0.000480793 1.33133e-05 -89.5997 13.5292 -1.31422 -10.4415 10.3561 -3.64059 10.9303 43.2214 26.609 -27.6135 -9.12996e-07 5.19893e-06 109.921 -0.948614 -3.57241 1.08023 2.44531 -10.5416 5.1686 4.68044 44.7173 0.85463 -11.7166 14.2344 -5.43124 0.816585 -5.08187 0.06546 6.62817 -50.904 -0.445079 -1.99557 51.2418 2.90434 2.30075 -8.05994 -8.97638 -3.9823e-07 -6.31832 -3.22864e-06 
10.8839 99.7535 453.543 -7.28788 12.5815 1.59859 6.47834 1.78253 1.3904 3.36239 6.7649 -6.13439 7.36719 3.61234 -6.52568 -2.32877 -0.225713 1.94552 -3.4755 -29.4561 11.5532 -19.3296 2.87701 -14.2873 -47.9807 -7.4597 -17.8191 -0.000259052 7.27536e-06 -95.472 11.9234 -4.09446 -17.8106 11.3855 -3.5316 11.8595 42.2151 22.907 -34.8949 3.8684e-14 3.24194e-15 117.518 2.15996 -5.13513 11.7262 1.70313 -10.3612 6.80458 10.4259 57.4039 -7.97137 -14.2146 11.8973 -1.77805 -2.67428e-06 5.41481 5.14413e-06 12.3517 -48.2783 0.833053 -4.18522 32.3132 6.78958 4.70808 -8.41868 -2.76598 -2.1547e-07 -4.43283 5.50274e-07 
11.3054 98.1723 465.691 -6.39209 10.806 0.0154431 6.18309 3.09073 1.50254 2.5612 7.91205 -6.06784 6.50374 4.72522 -6.51926 -3.31928 -5.80095 2.49945 -0.643704 -25.3419 11.7317 -20.6144 3.182 -14.2998 -44.6432 -11.3481 -20.3836 -0.000213008 8.6444e-06 -98.1422 7.15571 -11.8242 -20.2633 10.2948 -3.57835 11.4905 45.8449 14.6405 -37.2874 2.30418e-06 -8.06282e-06 121.898 3.63791 -4.29223 19.2197 -0.596905 -9.30963 4.72226 18.7027 73.451 -18.6206 -14.6491 9.27408 -0.207239 2.70319e-06 6.35982 3.22221e-06 13.9671 -44.2426 0.787801 -4.00347 19.4901 5.48595 6.73929 -12.6653 1.25365 -1.03133e-05 -2.0613 1.67401e-06 
11.4955 96.1272 477.98 -5.73792 7.93001 -0.430928 5.61805 4.61656 2.09442 1.62324 9.51992 -5.23338 5.56793 6.31377 -5.75476 -3.26796 -10.2609 2.14835 0.883656 -22.5532 9.91593 -21.3985 3.54615 -15.0036 -43.5986 -12.3423 -19.6999 -0.000227733 1.17845e-05 -101.132 3.5132 -17.5267 -22.0755 9.33316 -3.64438 10.7247 51.003 6.63448 -34.6052 1.52588e-05 3.63139e-15 121.167 3.10126 -1.26042 23.1478 -0.915301 -9.9298 4.00654 127.037 85.0585 -122.604 -21.3777 10.4649 0.927262 -3.97531e-06 7.51702 -1.08877e-05 13.9552 -40.9721 -1.06642 -3.95075 20.2507 7.09444 3.33231 -0.746149 0.867887 -2.4043e-06 -12.6302 1.7831e-07 
11.3022 93.7835 490.23 -6.93301 6.20172 -0.695851 5.40745 5.38617 3.02829 1.47917 10.4673 -3.62855 5.56329 7.29036 -4.21022 -3.14855 -13.2424 1.54463 1.57627 -20.876 7.32188 -18.9683 3.19106 -15.808 -48.8393 -8.86238 -11.2368 -0.000228882 6.46959e-12 -105.42 -1.14776 -13.1733 -23.9702 8.52709 -3.82009 8.26636 53.2618 9.26948 -26.0767 1.39135e-06 -6.3659e-06 114.658 -4.20551 2.45913 24.8227 3.52983 -13.2465 6.56271 169.692 70.2979 -166.521 -20.6144 8.18129 7.3321 -3.41442e-06 4.29574 2.54271e-08 16.2886 -41.0465 -0.174167 -4.93484 34.0841 8.2068 -5.0266 2.48336 2.3883 9.88603e-07 -7.31711 1.25847e-06 
11.1473 91.8146 502.821 -8.8872 6.42461 -1.30394 5.40717 5.03505 3.748 1.87414 10.397 -1.99448 6.14986 7.26572 -2.60696 -3.49867 -14.6784 1.24919 1.9331 -19.9694 5.13537 -17.0984 2.70991 -15.4666 -55.8414 -4.2552 3.79404 -0.00019891 -4.04297e-06 -105.365 -7.87081 -2.37918 -19.8568 7.53886 -3.96147 5.75633 48.9561 17.2067 -9.90779 1.49672e-05 2.96868e-06 101.219 -11.8598 -2.49709 27.1289 10.4137 -22.8456 8.22858 175.697 56.8347 -172.504 -18.1073 8.39289 9.17643 -8.54233e-06 3.37304 6.53642e-06 20.1821 -38.9949 4.5343 -4.2744 46.2412 5.04671 -6.19286 -10.8663 -2.24576 -2.0157e-06 -6.17846 -1.22041e-06 
11.4734 91.1372 515.574 -9.98996 7.74384 -1.34422 5.70241 3.93209 3.71445 1.97395 9.63129 -1.10063 6.36094 6.52785 -1.67914 -4.11439 -14.1687 0.781623 2.40791 -19.8144 4.35943 -17.4772 2.20757 -12.4158 -59.3282 -1.29221 18.6058 -0.000227576 1.88951e-05 -97.9084 -9.94691 6.32497 -8.93491 9.52681 -3.8714 7.80519 40.1241 18.6732 5.85951 -0.0001679 1.26615e-05 90.4802 -15.4084 -10.7855 19.0334 16.96 -39.8957 11.1281 177.269 47.8805 -175.386 -1.95162 13.1976 6.65102 -4.01019e-06 -1.32841 -3.74096e-06 21.0764 -32.6365 4.86274 -5.16401 49.4949 3.32017 -5.78485 -22.8807 -1.79458 5.78775e-07 -4.35889 4.06771e-07 
13.2159 90.6866 527.284 -10.0721 9.05913 2.09554 6.05847 2.49011 3.23615 1.43063 8.2171 -0.781733 5.85913 5.12623 -1.26415 -3.99449 -10.4328 0.646487 1.94016 -20.6903 3.9888 -14.3747 0.71636 -9.9972 -62.7128 -1.0204 30.6995 -0.00015708 -8.95532e-06 -83.3468 -7.15433 12.9591 -6.51048 9.5194 -3.46705 12.4735 36.3649 17.2569 17.8695 1.6712e-05 -2.96808e-06 83.2237 -19.9274 -12.5447 12.4758 17.9876 -59.4655 9.15085 179.724 48.8235 179.619 -2.08096 13.9425 0.794071 3.60026e-07 0.0950519 -3.97681e-07 18.3489 -22.5965 0.118516 -7.24625 42.9977 6.03838 -4.9318 -29.561 -1.01074 -2.89635e-07 -3.12264 -4.98601e-07 
14.2437 92.4475 540.181 -8.17532 11.8216 0.0765848 4.82648 1.12279 4.26786 -0.632805 6.46307 1.58908 3.99202 3.45707 1.18275 -3.12483 -4.98453 -0.0127969 1.85124 -24.7607 1.06454 -11.3875 -0.604567 -6.70974 -62.3038 5.32283 33.7069 -0.000191141 -3.03563e-06 -80.163 -5.1051 2.99131 -6.54413 8.26532 -3.49411 17.1317 38.3652 11.1794 29.6642 8.02919e-06 -9.83186e-06 72.936 -19.3913 -11.7947 9.81388 25.3648 -69.1117 18.329 179.791 58.0351 174.467 -1.53677 9.69137 0.944112 -1.90385e-06 -0.517725 1.5629e-07 13.3132 -12.3545 -6.11976 -6.43034 32.7302 8.917 -0.123418 -26.6452 3.051 -0.253317 -5.5661 -0.0239286 
15.4059 94.4472 553.077 -4.96051 13.8636 -2.01209 2.90349 0.257764 5.74521 -3.10929 4.89528 4.54785 1.71382 2.05165 4.19479 -2.04773 -1.87065 -1.03023 1.84482 -25.8991 -3.92179 -8.53611 -1.23189 -5.11536 -59.3229 11.178 38.3507 -0.000232571 -1.03499e-05 -83.494 -4.99437 -7.6833 -2.45157 6.14463 -3.57604 19.1782 41.6149 3.77522 35.6699 2.194e-05 9.79177e-07 68.7388 -12.7825 -12.7847 3.52059 27.7221 -72.5957 23.6312 -177.341 74.3579 172.308 -0.377478 5.14937 1.13696 -1.67564e-07 -0.259861 -3.1902e-06 6.52281 -2.63198 -13.5062 -4.07647 21.6807 8.93305 4.43951 -12.1304 10.5187 -6.26936 -15.9435 -1.3602 
16.729 96.0772 565.944 -1.70603 15.8194 -2.26085 1.08816 -0.379007 7.07251 -5.37138 3.35004 6.98459 -0.421814 0.670633 6.70589 -1.12264 -1.22598 -2.19008 1.36643 -24.7371 -9.86705 -7.77431 -1.17681 -6.0768 -53.635 14.5971 43.4337 -0.000534026 2.21313e-06 -91.6623 -2.74558 -16.8684 3.97012 3.92414 -3.77725 19.5956 43.8953 -2.45526 35.4717 -1.32806e-05 -1.72529e-06 71.8118 -7.91142 -11.9723 -0.232375 18.3156 -73.6396 16.9917 -22.1076 85.7486 18.9095 -0.224589 0.934027 1.14747 3.00668e-07 0.268902 -1.6123e-06 1.28814 2.49112 -17.3678 -2.53357 17.7465 8.20246 6.99681 1.13754 12.4908 -7.35535 -15.6795 -1.48419 
17.9959 97.4261 578.735 -0.235264 17.2955 -0.151287 0.356236 -0.699674 7.7948 -6.6389 2.29874 8.2056 -1.64125 -0.283695 8.00782 -1.05001 -0.464956 -2.96902 0.367338 -24.5717 -15.0056 -9.24544 -0.926569 -6.08845 -46.6718 16.6729 44.2563 -0.000229066 -2.36315e-06 -98.9093 2.06316 -22.3038 9.66091 3.10406 -3.88825 16.4223 44.7025 -5.95701 35.6994 -2.13468e-05 7.8761e-06 76.6794 -5.95757 -6.41311 -0.0464599 3.04958 -71.6565 3.34441 -3.20308 63.5143 -0.0563265 -1.56875 -2.96924 2.30817 1.09673e-06 0.842561 -1.28381e-06 -0.354318 0.755378 -14.6273 -4.11548 26.8259 3.26984 15.7649 6.17617 4.18626 -1.26556e-05 2.17865 -3.50003e-06 
18.9544 98.1396 590.985 -0.834621 16.8571 3.07341 0.545904 -0.249976 7.65367 -6.44625 2.48269 8.33485 -1.42684 -0.101905 8.1577 -1.55001 -0.616842 -3.20149 -1.06974 -25.0144 -17.6806 -10.271 -0.817902 -5.61626 -43.9292 15.4978 40.1282 -0.000199203 -8.722e-06 -100.984 8.73223 -23.3376 14.0079 3.19322 -3.8995 14.0832 44.4183 -7.72242 34.8357 2.68654e-05 -1.22228e-06 80.251 -7.54059 -3.31281 7.60809 -3.70695 -62.6003 -1.27245 -1.07109 37.4314 -2.2777 -4.09746 -2.65561 0.531384 5.30802e-08 0.441567 2.81817e-07 1.19688 -1.35522 -11.2599 -8.1753 41.1497 3.42234 11.3064 5.98175 -2.3005 1.88384e-06 -0.186096 2.58642e-06 
19.7866 97.3504 602.871 -2.21857 14.124 5.97184 1.17319 1.01349 6.71414 -5.26489 3.96096 7.62431 -0.227367 1.28964 7.39038 -2.10527 -6.77965 -3.01435 -2.23081 -20.6943 -17.1366 -10.1379 -0.616058 -6.81204 -45.9325 11.0894 36.1021 -0.000212293 1.26725e-05 -101.983 14.4328 -22.1348 16.4697 4.34002 -3.80364 14.9999 43.1428 -7.8952 31.1081 -3.24725e-05 -2.32238e-06 80.9073 -7.30731 -3.87136 18.1735 -3.32925 -47.9335 -0.27824 -2.11325 12.4186 -3.58269 -7.21216 2.43168 0.46216 -5.79487e-06 -5.71351 3.32883e-08 3.50813 -3.13194 -10.3645 -14.7849 59.5071 9.70999 10.1976 4.84905 -6.84271 -7.0227e-07 -0.460211 -4.63077e-06 
